<svg xmlns="http://www.w3.org/2000/svg" viewBox="0 0 1336 542"><defs><style>.cls-1{fill:#d3d3d3;}.cls-1,.cls-2,.cls-3,.cls-4{stroke:#000;stroke-miterlimit:10;}.cls-2,.cls-5{fill:#fff;}.cls-3{fill:#8e8e8e;}.cls-4{fill:blue;}.cls-5,.cls-6{font-size:24px;font-family:MyriadPro-Regular, Myriad Pro;}.cls-6{fill:#4c4c4c;}.cls-7{letter-spacing:-0.01em;}</style></defs><title>mappa2biennio</title><g id="Base"><polygon class="cls-1" points="0.5 446.5 0.5 99.5 994.5 99.5 994.5 235.5 1081.5 235.5 1081.5 0.5 1335.5 0.5 1335.5 541.5 1082.5 541.5 1081.5 303.5 996.5 303.5 996.5 446.5 0.5 446.5"/><path class="cls-2" d="M1302.5,326.5" transform="translate(-23 -118)"/></g><g id="Livello_2" data-name="Livello 2"><rect class="cls-3" x="87.5" y="115.5" width="80" height="125"/><rect class="cls-3" x="181.5" y="115.5" width="80" height="125"/><rect class="cls-3" x="87.5" y="115.5" width="80" height="125"/><rect class="cls-3" x="273.5" y="115.5" width="80" height="125"/><rect class="cls-3" x="363.5" y="115.5" width="80" height="125"/><rect class="cls-3" x="453.5" y="115.5" width="80" height="125"/><rect class="cls-3" x="544.5" y="115.5" width="80" height="125"/><rect class="cls-3" x="635.5" y="115.5" width="80" height="125"/><rect class="cls-3" x="725.5" y="115.5" width="80" height="125"/><rect class="cls-3" x="817.5" y="115.5" width="80" height="125"/><rect class="cls-3" x="12.5" y="300.5" width="80" height="125"/><rect class="cls-3" x="101.5" y="300.5" width="80" height="125"/><rect class="cls-3" x="189.5" y="300.5" width="80" height="125"/><rect class="cls-3" x="279.5" y="300.5" width="80" height="125"/><rect class="cls-3" x="368.5" y="300.5" width="80" height="125"/><rect class="cls-3" x="460.5" y="300.5" width="80" height="125"/><rect class="cls-3" x="551.5" y="300.5" width="80" height="125"/><rect class="cls-3" x="643.5" y="300.5" width="80" height="125"/><rect class="cls-3" x="731.5" y="300.5" width="80" height="125"/><rect class="cls-3" x="821.5" y="300.5" width="80" height="125"/><rect class="cls-3" x="909.5" y="300.5" width="80" height="125"/><rect class="cls-3" x="1090.5" y="323.5" width="75" height="185"/><rect class="cls-3" x="1171.5" y="323.5" width="75" height="185"/><rect class="cls-4" x="1251.5" y="323.5" width="75" height="185"/><rect class="cls-4" x="1090.5" y="32.5" width="75" height="185"/><rect class="cls-4" x="1171.5" y="32.5" width="75" height="185"/><rect class="cls-4" x="1251.5" y="32.5" width="75" height="185"/><text class="cls-5" transform="translate(1296.33 164.24) rotate(-90)">Lab 292</text><text class="cls-5" transform="translate(1216.33 164.24) rotate(-90)">Lab 290</text><text class="cls-5" transform="translate(1136.33 162.24) rotate(-90)">Lab 288</text><text class="cls-6" transform="translate(1136.33 455.24) rotate(-90)">Lab 295</text><text class="cls-6" transform="translate(1216.33 455.24) rotate(-90)">Lab 297</text><text class="cls-5" transform="translate(1296.33 455.24) rotate(-90)">Lab 297b</text><text class="cls-6" transform="translate(863.33 223.24) rotate(-90)"><tspan class="cls-7">A</tspan><tspan x="14.4" y="0">ula 286</tspan></text><text class="cls-6" transform="translate(774.33 224.24) rotate(-90)"><tspan class="cls-7">A</tspan><tspan x="14.4" y="0">ula 284</tspan></text><text class="cls-6" transform="translate(682.33 224.24) rotate(-90)"><tspan class="cls-7">A</tspan><tspan x="14.4" y="0">ula 282</tspan></text><text class="cls-6" transform="translate(591.33 224.24) rotate(-90)"><tspan class="cls-7">A</tspan><tspan x="14.4" y="0">ula 280</tspan></text><text class="cls-6" transform="translate(501.33 222.24) rotate(-90)"><tspan class="cls-7">A</tspan><tspan x="14.4" y="0">ula 278</tspan></text><text class="cls-6" transform="translate(408.33 222.24) rotate(-90)"><tspan class="cls-7">A</tspan><tspan x="14.4" y="0">ula 276</tspan></text><text class="cls-6" transform="translate(320.33 224.24) rotate(-90)"><tspan class="cls-7">A</tspan><tspan x="14.4" y="0">ula 274</tspan></text><text class="cls-6" transform="translate(228.33 224.24) rotate(-90)"><tspan class="cls-7">A</tspan><tspan x="14.4" y="0">ula 272</tspan></text><text class="cls-6" transform="translate(135.33 222.24) rotate(-90)"><tspan class="cls-7">A</tspan><tspan x="14.4" y="0">ula 270</tspan></text><text class="cls-6" transform="translate(958.33 407.24) rotate(-90)"><tspan class="cls-7">A</tspan><tspan x="14.4" y="0">ula 293</tspan></text><text class="cls-6" transform="translate(869.33 407.24) rotate(-90)"><tspan class="cls-7">A</tspan><tspan x="14.4" y="0">ula 291</tspan></text><text class="cls-6" transform="translate(779.33 407.24) rotate(-90)"><tspan class="cls-7">A</tspan><tspan x="14.4" y="0">ula 289</tspan></text><text class="cls-6" transform="translate(690.33 408.24) rotate(-90)"><tspan class="cls-7">A</tspan><tspan x="14.4" y="0">ula 287</tspan></text><text class="cls-6" transform="translate(599.33 407.24) rotate(-90)"><tspan class="cls-7">A</tspan><tspan x="14.4" y="0">ula 285</tspan></text><text class="cls-6" transform="translate(508.33 407.24) rotate(-90)"><tspan class="cls-7">A</tspan><tspan x="14.4" y="0">ula 283</tspan></text><text class="cls-6" transform="translate(415.33 407.24) rotate(-90)"><tspan class="cls-7">A</tspan><tspan x="14.4" y="0">ula 281</tspan></text><text class="cls-6" transform="translate(326.33 407.24) rotate(-90)"><tspan class="cls-7">A</tspan><tspan x="14.4" y="0">ula 279</tspan></text><text class="cls-6" transform="translate(237.33 407.24) rotate(-90)"><tspan class="cls-7">A</tspan><tspan x="14.4" y="0">ula 277</tspan></text><text class="cls-6" transform="translate(148.33 408.24) rotate(-90)"><tspan class="cls-7">A</tspan><tspan x="14.4" y="0">ula 275</tspan></text><text class="cls-6" transform="translate(59.33 408.24) rotate(-90)"><tspan class="cls-7">A</tspan><tspan x="14.4" y="0">ula 273</tspan></text></g></svg>