<svg xmlns="http://www.w3.org/2000/svg" viewBox="0 0 608 1307"><defs><style>.cls-1{fill:#d3d3d3;}.cls-1,.cls-6{stroke:#000;stroke-miterlimit:10;}.cls-2{font-size:22px;}.cls-2,.cls-7{font-family:MyriadPro-Regular, Myriad Pro;}.cls-3{letter-spacing:-0.04em;}.cls-4{letter-spacing:0em;}.cls-5{letter-spacing:0em;}.cls-6{fill:#8e8e8e;}.cls-7{font-size:24px;fill:#4c4c4c;}.cls-8{letter-spacing:-0.02em;}.cls-9{letter-spacing:-0.01em;}.cls-10{letter-spacing:-0.01em;}.cls-11{letter-spacing:-0.01em;}.cls-12{letter-spacing:0em;}.cls-13{letter-spacing:0em;}.cls-14{letter-spacing:-0.03em;}</style></defs><title>mappa2centro</title><g id="Livello_1" data-name="Livello 1"><polygon class="cls-1" points="88.5 0.5 88.5 931.5 0.5 931.5 0.5 1005.5 88.5 1005.5 88.5 1306.5 507.5 1306.5 507.5 739.5 607.5 739.5 607.5 653.5 507.5 653.5 508.5 0.5 88.5 0.5"/></g><g id="Livello_2" data-name="Livello 2"><text class="cls-2" transform="translate(521.06 686.56)">-------&gt;<tspan x="0" y="26.4">Biennio</tspan></text><text class="cls-2" transform="translate(12.06 960.56)">&lt;-------<tspan class="cls-3"><tspan x="0" y="26.4">T</tspan><tspan class="cls-4" x="9.94" y="26.4">r</tspan><tspan class="cls-5" x="17.23" y="26.4">iennio</tspan></tspan></text><rect class="cls-6" x="324.5" y="721.5" width="159" height="66"/><rect class="cls-6" x="324.5" y="814.5" width="159" height="476"/><rect class="cls-6" x="111.5" y="988.5" width="144" height="302"/><rect class="cls-6" x="324.5" y="223.5" width="159" height="63"/><rect class="cls-6" x="111.5" y="98.5" width="144" height="75"/><text class="cls-7" transform="translate(329 762)"><tspan class="cls-8">V</tspan><tspan x="13.01" y="0">i</tspan><tspan class="cls-9" x="18.62" y="0">c</tspan><tspan x="29.23" y="0">ep</tspan><tspan class="cls-10" x="54.91" y="0">r</tspan><tspan x="62.52" y="0">esidenza</tspan></text><text class="cls-7" transform="translate(411.33 1150.24) rotate(-90)">Labo<tspan class="cls-11" x="49.73" y="0">r</tspan><tspan class="cls-12" x="57.45" y="0">a</tspan><tspan class="cls-9" x="68.93" y="0">t</tspan><tspan x="76.73" y="0">o</tspan><tspan class="cls-13" x="89.9" y="0">r</tspan><tspan x="97.84" y="0">i di </tspan><tspan class="cls-14" x="132.79" y="0">F</tspan><tspan x="143.85" y="0">isica</tspan></text><text class="cls-7" transform="translate(188.33 1235.24) rotate(-90)">Labo<tspan class="cls-11" x="49.73" y="0">r</tspan><tspan class="cls-12" x="57.45" y="0">a</tspan><tspan class="cls-9" x="68.93" y="0">t</tspan><tspan x="76.73" y="0">o</tspan><tspan class="cls-13" x="89.9" y="0">r</tspan><tspan x="97.84" y="0">i di </tspan><tspan class="cls-14" x="132.79" y="0">F</tspan><tspan x="143.85" y="0">isica</tspan></text><text class="cls-7" transform="translate(340 262)">Lab Biolo<tspan class="cls-9" x="92.28" y="0">g</tspan><tspan x="105.55" y="0">ia</tspan></text><text class="cls-7" transform="translate(120 144)">Lab Biolo<tspan class="cls-9" x="92.28" y="0">g</tspan><tspan x="105.55" y="0">ia</tspan></text><rect class="cls-6" x="111.5" y="186.5" width="144" height="48"/><rect class="cls-6" x="111.5" y="331.5" width="144" height="89"/><rect class="cls-6" x="111.5" y="442.5" width="144" height="61"/><rect class="cls-6" x="111.5" y="522.5" width="144" height="50"/><rect class="cls-6" x="111.5" y="661.5" width="144" height="72"/><rect class="cls-6" x="111.5" y="806.5" width="144" height="55"/><rect class="cls-6" x="111.5" y="881.5" width="144" height="47"/><rect class="cls-6" x="324.5" y="537.5" width="156" height="82"/><rect class="cls-6" x="324.5" y="472.5" width="159" height="50"/><rect class="cls-6" x="324.5" y="331.5" width="156" height="64"/><rect class="cls-6" x="324.5" y="149.5" width="159" height="61"/><rect class="cls-6" x="324.5" y="78.5" width="156" height="57"/><rect class="cls-6" x="324.5" y="11.5" width="156" height="53"/><rect class="cls-6" x="111.5" y="11.5" width="144" height="67"/><rect class="cls-6" x="111.5" y="741.5" width="144" height="46"/></g></svg>